HIERARCHY
ROOT simHips
{
  OFFSET 0.727004 85.0176 -1.35644
  CHANNELS 6 Xposition Yposition Zposition Zrotation Xrotation Yrotation
  JOINT simSpine
  {
    OFFSET -0.000355721 21.3001 -0.016921
    CHANNELS 3 Zrotation Xrotation Yrotation
    JOINT simLeftArm
    {
      OFFSET 13.5181 21.3012 0
      CHANNELS 3 Zrotation Xrotation Yrotation
      JOINT simLeftForeArm
      {
        OFFSET 24.5783 0 0
        CHANNELS 3 Zrotation Xrotation Yrotation
        JOINT simLeftHand
        {
          OFFSET 24.5783 0 0
          CHANNELS 3 Zrotation Xrotation Yrotation
          End Site
          {
            OFFSET 7.32568 1.52588e-05 0.0169305
          }
        }
      }
    }
    JOINT simHead
    {
      OFFSET 0 27.4458 -0.00489235
      CHANNELS 3 Zrotation Xrotation Yrotation
      End Site
      {
        OFFSET 0 0 0
      }
    }
    JOINT simRightArm
    {
      OFFSET -13.5174 21.3012 0
      CHANNELS 3 Zrotation Xrotation Yrotation
      JOINT simRightForeArm
      {
        OFFSET -24.5783 0 0
        CHANNELS 3 Zrotation Xrotation Yrotation
        JOINT simRightHand
        {
          OFFSET -24.5783 0 0
          CHANNELS 3 Zrotation Xrotation Yrotation
          End Site
          {
            OFFSET -7.32568 1.52588e-05 0.0169305
          }
        }
      }
    }
  }
  JOINT simRightUpLeg
  {
    OFFSET -8.44614 -9.41038 0.835684
    CHANNELS 3 Zrotation Xrotation Yrotation
    JOINT simRightLeg
    {
      OFFSET 0 -40.9639 0
      CHANNELS 3 Zrotation Xrotation Yrotation
      JOINT simRightFoot
      {
        OFFSET 0 -40.9639 0
        CHANNELS 3 Zrotation Xrotation Yrotation
        End Site
        {
          OFFSET 0.50614 -9.67405 14.6709
        }
      }
    }
  }
  JOINT simLeftUpLeg
  {
    OFFSET 8.44614 -9.41038 0.835684
    CHANNELS 3 Zrotation Xrotation Yrotation
    JOINT simLeftLeg
    {
      OFFSET 0 -40.9639 0
      CHANNELS 3 Zrotation Xrotation Yrotation
      JOINT simLeftFoot
      {
        OFFSET 0 -40.9639 0
        CHANNELS 3 Zrotation Xrotation Yrotation
        End Site
        {
          OFFSET -0.50614 -9.67405 14.6709
        }
      }
    }
  }
}
MOTION
Frames:	26
Frame Time:	0.0333333
0.727004 85.0176 -1.35644 0.0522179 -5.45313 -46.3231 -1.95733 9.24289 7.55274 -73.4785 -36.6256 -36.9546 -0.00240904 1.28939e-05 -106.36 -15.7619 4.01521 -6.87555 -3.25199 11.8042 36.2335 57.9417 29.0747 54.447 6.04449e-05 4.2029e-06 105.988 8.40498 -5.61986 18.572 -28.2269 -17.8495 -21.6508 -17.1298 62.1701 5.33852 23.7447 -29.0256 5.04273 18.9899 -28.3337 17.9023 9.62246 62.4769 -15.0717 -14.9248 -25.3695 -14.7164 
0.858051 84.2401 -0.693913 -0.46427 -5.99318 -46.1003 -1.88139 9.5751 7.58426 -74.1949 -33.8424 -33.0168 -0.0024086 1.4282e-05 -108.18 -16.5148 4.6212 -3.31507 -2.42105 13.1962 35.8273 59.064 29.6 53.0371 6.04174e-05 4.29782e-06 106.359 8.45678 -5.33243 18.509 -29.7058 -16.9734 -22.2426 -17.1236 63.3623 7.50501 24.479 -29.4932 5.08717 18.7876 -28.9333 17.3018 10.3641 65.3536 -15.7502 -14.3925 -25.8946 -14.14 
1.04653 83.477 0.446139 -0.963765 -6.64923 -46.5431 -1.83178 9.98434 7.71382 -74.7206 -29.5995 -27.328 -0.0024077 1.6778e-05 -111.501 -14.5564 6.2975 -0.142488 -1.83533 15.0575 36.2392 59.8146 30.7512 51.7536 6.03644e-05 4.47443e-06 107.052 8.30991 -4.84134 18.5117 -31.4127 -15.9918 -22.8432 -18.0832 63.9581 11.0458 25.4294 -29.9357 5.17032 19.2649 -30.1196 16.943 9.83337 69.8652 -15.5571 -15.1523 -23.521 -13.8409 
1.35318 82.9191 2.30239 -1.33361 -7.27958 -48.0698 -1.84955 10.4293 7.99413 -74.7002 -24.8867 -19.8829 -0.0024062 2.01842e-05 -116.163 -10.9738 8.23164 2.36534 -1.7572 17.1497 37.6108 60.062 32.6913 50.749 6.02916e-05 4.70507e-06 107.96 7.90272 -4.1743 18.6303 -33.344 -15.1161 -23.3061 -19.6259 63.2695 15.4707 26.2219 -29.7344 5.05992 20.4112 -31.8506 17.079 7.83636 75.7907 -14.0072 -17.381 -18.4961 -14.4807 
1.80309 82.7881 4.87491 -1.49946 -7.68853 -50.7781 -1.9801 10.8123 8.37683 -74.0377 -19.7626 -10.1749 -0.00240372 2.45972e-05 -122.502 -7.2598 9.38635 4.37426 -2.33261 19.027 39.6327 60.0715 35.0104 50.0107 6.02228e-05 4.91237e-06 108.78 7.25613 -3.55634 18.7973 -35.2943 -14.6367 -23.4694 -20.9202 60.8811 19.836 27.1225 -27.8858 4.65901 22.1258 -33.7484 17.7916 3.48693 81.9016 -9.88528 -19.826 -11.733 -16.24 
2.44645 83.3272 8.08555 -1.76508 -7.48491 -54.5914 -2.29317 11.0946 8.70088 -73.3662 -13.9567 0.731429 -0.00240015 2.94588e-05 -130.056 -4.28802 8.84013 6.43321 -3.53088 20.2647 41.7476 60.0735 36.8815 49.5033 6.01948e-05 4.99402e-06 109.104 6.4139 -3.26376 18.8864 -37.2395 -14.4645 -23.3031 -19.2794 56.8015 21.986 26.0214 -23.5839 3.15603 24.365 -35.0175 18.79 -9.97664 86.732 4.37622 -20.1768 -6.25857 -18.3316 
3.28066 84.3713 11.8229 -2.29425 -6.58495 -58.9854 -2.70767 11.3035 8.78075 -72.9755 -8.24479 11.2 -0.00239612 3.36716e-05 -137.355 -2.01739 6.43014 7.98114 -5.06055 20.5202 43.7838 59.7908 37.6352 49.603 6.0228e-05 4.8969e-06 108.719 5.3918 -3.48052 18.8646 -38.5165 -14.9616 -23.3269 -17.1043 52.2649 23.3973 22.3824 -17.1065 1.37547 26.8649 -35.152 19.8679 -70.7071 89.0575 66.1115 -18.5036 -5.31812 -18.1482 
4.30209 85.6168 15.7047 -2.85601 -4.98536 -63.8637 -3.32244 11.4808 8.59858 -71.6598 -4.1438 20.5282 -0.00239255 3.66396e-05 -143.169 -0.337869 2.61526 8.19947 -6.63159 19.5759 46.1375 58.4862 37.211 50.8277 6.03083e-05 4.65337e-06 107.756 4.27063 -4.25078 18.8445 -38.9507 -16.8785 -23.6196 -15.7776 48.1959 21.842 18.7254 -7.63284 4.06567 29.7718 -34.1365 21.3497 -43.7561 89.4196 39.7567 -15.829 -8.11423 -14.2344 
5.48171 86.658 19.522 -3.14842 -2.72534 -69.2456 -4.16469 11.6159 8.22823 -67.8359 -2.75305 27.6188 -0.00239005 3.83887e-05 -146.994 0.433864 -1.50621 7.41672 -8.13979 17.3543 50.4551 55.862 36.115 53.2097 6.04015e-05 4.35169e-06 106.57 3.19988 -5.48043 18.9306 -38.4471 -20.5703 -23.6559 -14.9934 45.2272 20.7425 15.5111 1.769 7.39028 33.271 -32.2491 23.5482 11.4386 85.7789 -14.9747 -11.8125 -11.0559 -8.59088 
6.80925 86.8775 23.4576 -3.10488 0.00500841 -74.708 -4.586 11.6212 7.50917 -56.577 -3.98986 33.3105 -0.00238999 3.84283e-05 -147.085 -1.18404 -8.68852 6.34063 -8.89489 13.8911 55.4436 52.3406 34.0284 56.1438 6.05057e-05 3.98446e-06 105.137 2.53462 -7.14657 19.2984 -37.0556 -25.4612 -22.8548 -14.6653 44.058 20.301 13.9462 7.32857 8.43756 36.9323 -29.9158 25.9336 15.3328 79.0294 -18.1964 -8.21662 -11.787 -5.03123 
8.21417 86.0888 27.7689 -2.86703 2.64326 -79.3052 -4.36088 11.5896 6.51263 -41.6491 -5.98555 34.8535 -0.00239404 3.54752e-05 -140.802 -5.57973 -17.5595 6.86434 -8.51871 10.3832 60.0096 48.9155 30.8487 58.2566 6.06173e-05 3.54656e-06 103.44 2.47707 -8.62262 19.9966 -35.461 -30.0242 -21.8348 -14.6003 44.2038 20.293 11.3565 6.57202 6.52326 40.4138 -27.0573 27.3196 13.0187 72.0101 -15.9416 -8.09173 -11.8521 -5.91362 
9.68269 84.1817 32.296 -2.71184 4.70132 -82.2845 -3.72626 11.7408 5.53196 -29.383 -8.57752 30.2849 -0.00240305 2.56221e-05 -124.037 -11.9598 -23.2833 8.5724 -7.16299 8.08656 63.2378 46.4797 27.1769 58.4252 6.07131e-05 3.11832e-06 101.792 2.92486 -9.05831 20.8967 -34.8927 -33.122 -21.8508 -14.5958 44.5407 20.353 9.8561 3.65915 3.75463 43.2565 -24.8718 27.4132 10.7022 67.7502 -15.9792 -13.6272 -14.016 -9.42961 
11.1855 81.6261 36.3415 -2.77046 5.80629 -83.5995 -3.33233 12.299 4.82445 -22.3614 -13.2471 18.7846 -0.00241079 3.03713e-06 -93.8042 -18.29 -20.578 9.24799 -5.55833 7.38558 64.8927 45.465 24.2242 56.6073 6.07685e-05 2.84e-06 100.727 3.4214 -8.0988 21.7622 -35.8196 -34.712 -22.8752 -14.6327 44.8323 20.4274 9.92336 2.82477 2.53583 44.6634 -24.7416 26.896 11.0865 68.3558 -18.7586 -19.3643 -20.2756 -13.9709 
12.6183 79.0648 39.3987 -2.98702 5.85054 -83.767 -3.64405 13.2476 4.49076 -20.3354 -20.3259 2.00729 -0.00240295 -2.57632e-05 -55.7499 -19.2835 -10.3233 8.2441 -4.59264 7.64267 65.3916 45.7154 23.0887 53.9228 6.07837e-05 2.75881e-06 100.416 3.49702 -6.36327 22.4174 -37.3096 -34.9394 -23.6427 -14.6842 44.9209 20.4207 10.0878 4.11203 2.53169 44.7941 -26.6583 26.5143 14.1747 73.371 -22.8783 -20.6796 -29.4338 -17.2857 
13.7682 76.853 41.6531 -3.10381 5.27512 -83.5425 -4.34378 14.2283 4.51854 -21.5119 -27.1085 -12.0153 -0.00238667 -4.0381e-05 -28.0989 -15.155 -1.56147 6.83329 -4.46302 8.00109 65.4782 46.881 24.0283 51.8447 6.07824e-05 2.76555e-06 100.442 3.21326 -4.84961 22.7376 -38.5712 -34.6404 -23.6072 -14.8488 45.4477 20.6582 8.96827 3.92105 1.1518 44.1393 -29.7528 26.4463 21.5376 79.1477 -30.8138 -21.2673 -33.1337 -18.7856 
14.4255 75.275 43.395 -2.77927 4.80765 -83.5675 -4.95498 14.8403 4.85209 -23.4312 -30.7487 -16.2889 -0.00238418 -4.16175e-05 -24.612 -13.6815 2.01869 7.08607 -4.827 8.21691 65.809 48.2591 26.4184 51.2213 6.07884e-05 2.73278e-06 100.317 3.15733 -3.97203 22.5878 -39.1086 -34.1967 -23.227 -14.2521 45.4383 18.966 6.06414 1.45736 -1.05484 43.411 -32.8278 26.3626 37.6086 83.532 -46.647 -20.86 -34.0109 -19.1038 
14.6171 74.3585 44.7089 -2.17108 4.61996 -83.9161 -5.28841 15.0015 5.38399 -25.6787 -30.7485 -10.1624 -0.00239739 -3.24644e-05 -44.8305 -16.6606 0.45606 9.54024 -5.137 8.58042 66.6168 49.204 29.1559 51.8731 6.08032e-05 2.65047e-06 100.003 3.77422 -3.5715 22.041 -40.3328 -33.9337 -23.3174 -12.967 45.2372 16.9654 7.19985 -0.844314 -1.51082 42.6191 -35.029 26.0834 65.2856 85.6703 -73.5968 -20.0414 -34.3787 -19.1887 
14.5032 73.9817 45.437 -1.86865 4.41505 -84.1594 -5.42641 14.9235 5.99097 -30.0559 -29.6028 -0.447296 -0.00240912 -1.25972e-05 -74.0267 -18.5941 -4.37168 12.1344 -5.01014 9.00805 67.2472 49.5284 31.4601 53.1533 6.0815e-05 2.58244e-06 99.7438 4.82956 -3.64855 21.5092 -41.5939 -33.4462 -23.7469 -12.2575 44.2273 18.2299 10.4529 -0.93052 -1.86062 41.9054 -35.9233 25.7228 86.6885 86.1016 -94.4826 -19.5259 -34.1835 -19.4298 
14.1531 74.0816 45.4463 -2.08885 4.11325 -83.9662 -5.43684 14.7779 6.49041 -36.4828 -29.0385 6.2214 -0.00241059 5.21885e-06 -96.5464 -17.1943 -6.83795 13.2761 -4.60079 9.66475 67.4713 49.7027 33.1369 54.3465 6.08207e-05 2.54945e-06 99.6181 5.65632 -4.42289 21.3446 -41.7007 -32.7232 -24.0964 -12.8589 43.6086 19.6711 9.42821 -1.62741 -1.67874 41.614 -35.5562 25.6098 86.4164 86.1208 -93.9538 -19.2689 -33.2081 -20.0066 
13.5451 74.6669 44.7082 -2.48958 3.85232 -83.3431 -5.28789 14.5252 6.76177 -43.7348 -27.7677 9.60101 -0.0024082 1.54605e-05 -109.739 -14.1586 -5.02676 13.3317 -4.03611 9.95669 67.209 50.1305 34.3541 55.2486 6.08245e-05 2.52649e-06 99.5307 5.88726 -5.64163 21.3823 -40.9056 -31.8239 -24.3325 -14.1085 43.6226 20.0399 6.23329 -3.17563 -0.233004 41.9327 -34.376 25.7757 64.8852 85.7261 -72.4091 -19.2795 -31.2437 -20.7549 
12.6559 75.7256 43.2048 -2.75501 3.57037 -82.3258 -4.92723 14.0726 6.83896 -51.6864 -25.1909 10.3475 -0.00240602 2.05361e-05 -116.655 -10.7938 -0.398921 12.6838 -3.49551 9.3749 65.9772 50.7854 35.2114 55.9872 6.08253e-05 2.52183e-06 99.513 5.76935 -6.46992 21.1173 -40.5259 -30.7877 -24.5388 -14.5179 44.1922 20.2781 6.41735 -3.96981 2.43145 42.4363 -32.8817 25.7756 38.2686 83.7408 -45.9205 -19.551 -27.9949 -21.3202 
11.569 77.1963 41.017 -2.81445 2.944 -80.8386 -4.44639 13.4477 6.8764 -59.6891 -22.5589 8.45116 -0.00240492 2.26021e-05 -119.587 -7.87439 4.91082 11.513 -3.20705 8.57304 63.997 51.3267 35.7436 56.4093 6.08125e-05 2.59736e-06 99.8006 5.79122 -6.32997 20.309 -39.6692 -29.4431 -24.1631 -14.6611 44.8477 20.5268 6.35062 -6.55923 2.69477 42.427 -31.489 25.314 22.5935 79.8669 -30.1844 -19.8059 -22.9046 -21.6696 
10.3158 78.9525 38.1721 -2.59927 1.68758 -78.7735 -4.11875 12.7623 6.99801 -66.6228 -20.9439 4.08019 -0.0024049 2.26355e-05 -119.636 -5.86434 9.21842 9.9698 -3.29639 8.07257 61.5631 51.3981 36.0522 56.1313 6.07767e-05 2.79648e-06 100.56 6.14476 -5.49939 19.222 -38.5982 -28.1081 -22.9014 -14.8958 45.9569 20.8524 6.35572 -9.88146 -0.50933 41.5961 -30.4144 24.7262 14.9693 74.6956 -21.7548 -19.0126 -16.3246 -22.0305 
8.903 80.761 34.7032 -1.99312 -0.085849 -76.046 -4.0025 12.0757 7.20379 -72.2022 -20.3144 -2.36919 -0.00240559 2.13787e-05 -117.841 -4.95993 12.0782 8.57777 -3.71836 7.90463 58.6217 50.9102 36.1644 55.1417 6.07208e-05 3.0814e-06 101.651 6.58462 -4.70126 18.2851 -37.8487 -26.7504 -20.9546 -14.4414 47.889 15.7704 8.17107 -12.333 -1.16381 40.5221 -29.9367 24.6239 11.1797 69.0539 -16.7342 -18.7517 -8.5079 -21.9957 
7.47335 82.2967 30.9388 -0.982581 -1.98719 -72.6398 -3.89894 11.3953 7.40113 -76.7575 -19.8693 -9.87222 -0.00240648 1.95965e-05 -115.347 -5.02981 14.0853 7.89045 -4.27662 7.6764 55.0947 50.0085 35.9008 53.9612 6.06612e-05 3.3574e-06 102.711 6.80767 -4.356 17.7263 -37.7937 -25.3101 -19.3406 -13.0122 50.027 9.13865 11.6128 -13.5384 -0.550206 39.0476 -30.5369 25.2344 9.4042 64.4503 -13.4828 -18.8211 -1.34544 -20.1862 
6.18296 83.4312 27.1875 0.256464 -3.77159 -68.7211 -3.7932 10.8028 7.49373 -80.7352 -18.965 -16.6805 -0.00240718 1.80393e-05 -113.208 -5.44797 15.8334 7.85243 -4.8942 7.20571 51.2762 48.9177 35.0919 53.1129 6.06171e-05 3.54723e-06 103.443 6.84219 -4.36623 17.5586 -38.2775 -23.7324 -19.2078 -12.3594 51.5535 5.73974 15.6523 -14.0808 -0.0228107 36.8284 -32.0138 25.9666 8.65927 61.4669 -10.5328 -16.2967 1.81661 -17.9047 
